<svg version="1.1" id="Layer_1" xmlns="http://www.w3.org/2000/svg" xmlns:xlink="http://www.w3.org/1999/xlink" x="0px" y="0px"
	 width="100%" viewBox="0 0 1200 484" enable-background="new 0 0 1200 484" xml:space="preserve">
<path fill="#FFFFFF" opacity="1.000000" stroke="none" 
	d="
M836.000000,485.000000 
	C557.333374,485.000000 279.166748,485.000000 1.000075,485.000000 
	C1.000050,323.666718 1.000050,162.333435 1.000025,1.000118 
	C400.999908,1.000079 800.999817,1.000079 1200.999756,1.000039 
	C1200.999878,162.333206 1200.999878,323.666412 1201.000000,484.999817 
	C1079.500000,485.000000 958.000000,485.000000 836.000000,485.000000 
M12.998637,239.500000 
	C12.998637,314.927917 12.998637,390.355804 12.998637,465.715454 
	C403.975464,465.715454 794.377380,465.715454 1184.713745,465.715454 
	C1184.713745,319.025269 1184.713745,172.621140 1184.713745,26.284647 
	C794.024292,26.284647 403.622314,26.284647 12.998637,26.284647 
	C12.998637,97.213615 12.998637,167.856812 12.998637,239.500000 
z"/>
<path fill="#010100" opacity="1.000000" stroke="none" 
	d="
M12.998637,239.000000 
	C12.998637,167.856812 12.998637,97.213615 12.998637,26.284647 
	C403.622314,26.284647 794.024292,26.284647 1184.713745,26.284647 
	C1184.713745,172.621140 1184.713745,319.025269 1184.713745,465.715454 
	C794.377380,465.715454 403.975464,465.715454 12.998637,465.715454 
	C12.998637,390.355804 12.998637,314.927917 12.998637,239.000000 
M52.545475,290.026794 
	C56.474178,292.591553 60.136799,295.772095 64.381233,297.606171 
	C77.360184,303.214386 90.776619,306.762695 105.158463,304.019470 
	C116.746498,301.809143 127.768768,298.249054 136.896408,290.469086 
	C140.126404,287.715973 141.805679,289.334198 142.910004,292.027954 
	C147.843445,304.061951 154.439865,314.827026 164.645737,323.216705 
	C172.222427,329.445129 180.185349,334.819580 189.450745,338.325104 
	C191.997498,339.288635 194.736618,341.694061 195.860367,344.139587 
	C201.518295,356.452484 206.671692,368.997253 212.000290,381.461456 
	C213.239044,384.359070 214.680542,387.022308 218.428421,386.995178 
	C222.333939,386.966888 223.756989,384.585663 225.134903,381.175629 
	C230.274368,368.456512 235.746048,355.865906 241.405930,343.368744 
	C242.264893,341.472107 244.541245,339.709991 246.565018,338.926117 
	C268.815094,330.307739 284.636566,315.127228 293.946136,293.170197 
	C295.505127,289.493134 297.652161,288.910034 300.882599,291.332672 
	C312.545563,300.079010 325.857605,304.948669 340.248444,304.706757 
	C349.329834,304.554077 358.667450,302.484375 367.337646,299.608734 
	C377.013947,296.399414 385.594727,290.586212 392.080536,282.371185 
	C395.901886,277.531036 399.432312,272.459259 403.043793,267.455719 
	C413.596283,252.835770 418.697418,236.240585 419.900879,218.485046 
	C420.736908,206.150299 418.288116,194.194870 414.053589,182.531479 
	C406.619629,162.055649 393.637451,146.893692 373.185394,138.651688 
	C359.916870,133.304581 346.257690,131.861786 332.439819,135.953659 
	C320.538757,139.477921 308.803589,143.568985 297.028137,147.508194 
	C290.304199,149.757538 283.682953,152.319031 276.930939,154.475357 
	C275.394775,154.965912 273.338379,154.733032 271.876556,154.060867 
	C271.363129,153.824738 271.831085,151.264191 272.012451,149.784836 
	C272.107697,149.007767 272.532043,148.265182 272.841553,147.521072 
	C281.584869,126.499588 276.347473,101.530869 260.888245,85.419243 
	C253.178360,77.384041 243.806320,72.016579 233.097198,69.117584 
	C230.369965,68.379318 229.174240,67.550682 230.676437,64.781982 
	C235.163467,56.511868 240.140411,48.552483 249.432419,45.039684 
	C254.340134,43.184345 259.590179,42.108265 264.772003,41.144596 
	C268.837799,40.388474 269.342682,37.833366 268.957458,34.618279 
	C268.562347,31.320528 266.345642,29.525705 263.219788,30.086626 
	C256.886627,31.223089 250.337830,32.079906 244.423370,34.426666 
	C233.687683,38.686405 226.733887,47.323090 221.255569,57.242241 
	C220.639175,58.358334 219.412888,59.511829 218.257370,59.801121 
	C217.662415,59.950069 216.464325,58.327095 215.776047,57.339451 
	C214.109924,54.948673 212.635391,52.425114 210.991257,50.018169 
	C202.430481,37.485535 190.339417,31.261379 175.401642,29.957787 
	C171.107910,29.583078 168.382980,31.319769 167.424133,35.293983 
	C166.651245,38.497482 170.089996,41.839367 174.797882,41.912045 
	C190.212006,42.149982 199.001251,51.575245 205.934540,63.726688 
	C207.461029,66.402039 207.665344,68.117203 203.608734,69.248940 
	C190.590088,72.880959 179.523483,79.771507 171.549194,90.968338 
	C159.235168,108.258659 156.594467,126.875610 163.917191,146.905838 
	C164.858414,149.480362 164.890320,152.387314 165.343460,155.140274 
	C162.957458,154.753662 160.455917,154.702133 158.204361,153.925674 
	C144.336792,149.143372 130.479919,144.322281 116.706444,139.276749 
	C96.157631,131.749252 76.101463,131.579575 56.266174,141.900452 
	C40.753532,149.972137 30.869448,162.606064 24.143843,178.384232 
	C15.172900,199.429932 13.952030,221.021194 21.245991,242.388397 
	C27.411076,260.448608 37.089241,276.864777 52.545475,290.026794 
M463.938171,416.583862 
	C457.113129,417.034668 457.113129,417.034668 456.248566,425.773010 
	C477.726929,425.773010 499.185699,425.773010 521.069946,425.773010 
	C521.706909,423.005737 522.354736,420.191528 523.080200,417.040009 
	C519.273438,416.862915 515.944946,416.912079 512.670105,416.516876 
	C503.368896,415.394440 501.268860,412.232452 503.275177,403.093445 
	C505.593201,392.534485 507.861328,381.963867 510.051239,371.377655 
	C512.709961,358.525177 512.665161,358.624390 525.815125,358.583618 
	C529.044006,358.573608 530.430786,359.493866 531.246948,362.724823 
	C534.668030,376.266663 538.349487,389.743958 542.047180,403.214233 
	C545.011719,414.013519 550.659485,422.378540 562.614746,424.469879 
	C566.540527,425.156647 570.523682,425.689819 574.500122,425.876129 
	C582.657104,426.258209 582.666992,426.142914 584.051086,418.133026 
	C584.098328,417.859406 583.868164,417.537872 583.608765,416.768402 
	C575.065125,417.154510 570.971252,411.420044 568.505432,404.261353 
	C565.095276,394.361115 562.103455,384.315735 558.991333,374.314178 
	C556.937744,367.714355 554.987610,361.082397 552.924927,354.245178 
	C555.356812,353.326904 557.201782,352.640625 559.039246,351.934845 
	C579.925537,343.912109 589.843323,329.831879 589.762329,308.323425 
	C589.689026,288.843872 578.807251,275.543091 559.232788,274.199951 
	C535.690552,272.584564 512.020874,272.827423 488.198761,272.260803 
	C487.369324,275.863892 486.724274,278.666168 486.023895,281.708588 
	C489.275543,281.961029 491.951019,281.940674 494.536285,282.413666 
	C501.354797,283.661163 502.910126,285.842010 502.267456,292.683472 
	C502.142914,294.009155 502.123291,295.359131 501.849091,296.654236 
	C494.408722,331.796295 486.857941,366.915283 479.539795,402.082642 
	C477.798706,410.449554 473.493103,415.563721 463.938171,416.583862 
M708.160645,392.675476 
	C708.412537,391.270599 708.664429,389.865753 708.915833,388.463531 
	C698.401428,386.598846 698.187073,386.723602 694.757568,395.777252 
	C694.110474,397.485687 693.499939,399.234619 692.615845,400.821930 
	C689.015503,407.286011 684.413513,413.350433 676.583069,413.731903 
	C663.159058,414.385834 649.680176,413.912567 635.812500,413.912567 
	C640.313782,393.067291 644.749939,372.523315 649.209717,351.869995 
	C663.721069,351.869995 677.701599,351.944672 691.679077,351.769440 
	C693.309937,351.748962 695.856628,350.729889 696.356812,349.509216 
	C697.504272,346.708832 697.649841,343.497894 698.299316,339.918640 
	C682.518677,339.918640 667.281616,339.918640 651.611206,339.918640 
	C655.423462,321.496429 659.068176,303.588837 662.972900,285.738068 
	C663.210327,284.652435 665.493042,283.320312 666.853394,283.286682 
	C675.676514,283.068451 684.508728,283.097382 693.336121,283.202057 
	C704.023254,283.328796 709.199158,289.258759 708.081116,299.871887 
	C707.739502,303.114777 707.414978,306.359467 707.055054,309.872192 
	C711.267212,309.872192 714.852051,309.872192 718.812683,309.872192 
	C721.128906,297.211884 723.412598,284.729187 725.827393,271.529968 
	C723.088806,271.529968 721.129944,271.529968 719.171021,271.529968 
	C689.353760,271.529968 659.536438,271.529358 629.719177,271.530426 
	C622.336060,271.530701 621.054382,273.096283 621.925049,281.316864 
	C622.826782,281.439789 623.784363,281.625244 624.750305,281.693665 
	C636.675903,282.538025 638.778870,285.397522 636.271057,297.318359 
	C634.833557,304.151672 633.464478,310.999451 632.022034,317.831696 
	C626.046265,346.136841 620.166443,374.462982 614.002625,402.727173 
	C612.050598,411.678223 608.251526,414.629974 599.260498,415.761414 
	C591.795959,416.700745 590.889282,417.878387 591.610474,425.972595 
	C626.718689,425.972595 661.849548,425.938263 696.979919,426.032623 
	C700.054626,426.040863 700.405273,424.254242 700.936157,422.056030 
	C703.238647,412.522156 705.617371,403.006683 708.160645,392.675476 
M1161.845825,306.558594 
	C1161.390503,308.898499 1161.784302,310.722992 1164.729126,310.080017 
	C1167.682983,309.435028 1172.375000,312.317566 1173.380493,307.905243 
	C1176.062256,296.137390 1177.886353,284.174164 1180.189331,271.531128 
	C1177.571289,271.531128 1175.625732,271.531158 1173.680176,271.531158 
	C1144.022095,271.531158 1114.363892,271.530823 1084.705811,271.531281 
	C1076.305420,271.531403 1075.580688,272.345734 1076.233765,281.431274 
	C1077.971924,281.563934 1079.765503,281.701782 1081.559448,281.837585 
	C1090.109253,282.484863 1093.045288,286.361328 1091.262817,294.805542 
	C1084.049438,328.978271 1076.864624,363.157227 1069.554932,397.309387 
	C1066.165161,413.146667 1064.376587,414.597198 1048.204224,416.248260 
	C1047.892334,416.280090 1047.599854,416.501160 1047.071289,416.733948 
	C1046.460938,419.587158 1045.821655,422.575104 1045.094971,425.971741 
	C1047.450439,425.971741 1049.102295,425.971741 1050.754028,425.971741 
	C1080.911987,425.971741 1111.070068,425.994293 1141.228027,425.946228 
	C1145.502930,425.939392 1150.865112,427.068756 1153.732178,424.961853 
	C1156.357056,423.032654 1156.377930,417.458282 1157.384155,413.449463 
	C1159.468628,405.144836 1161.445557,396.813141 1163.477295,388.448669 
	C1152.601929,386.717590 1152.741821,386.778900 1149.006836,395.863586 
	C1147.506592,399.512573 1145.878784,403.537354 1143.124268,406.134308 
	C1139.655640,409.404572 1135.107666,413.268311 1130.789795,413.576538 
	C1117.397095,414.532532 1103.892822,413.926270 1090.173706,413.926270 
	C1094.671509,393.063599 1099.104370,372.502380 1103.552734,351.868774 
	C1118.128662,351.868774 1132.117676,351.942963 1146.103638,351.767609 
	C1147.713501,351.747437 1150.224487,350.711761 1150.721558,349.494995 
	C1151.864502,346.696533 1152.023560,343.496246 1152.665649,340.003723 
	C1136.830566,340.003723 1121.548096,340.003723 1105.982056,340.003723 
	C1109.737183,321.678833 1113.358154,303.761108 1117.194580,285.889679 
	C1117.429321,284.796143 1119.353271,283.310333 1120.514526,283.289215 
	C1130.340576,283.110291 1140.180786,282.985260 1149.998901,283.339996 
	C1157.302612,283.603851 1161.324585,287.382935 1162.291748,294.718323 
	C1162.760010,298.270996 1162.052124,301.978729 1161.845825,306.558594 
M957.237732,331.722900 
	C952.359070,354.986908 947.542725,378.264252 942.573181,401.508850 
	C940.385925,411.739746 936.874207,414.976532 927.179138,416.465027 
	C919.775696,417.601654 919.606445,417.800568 919.362122,425.812988 
	C940.815613,425.812988 962.264099,425.812988 984.051147,425.812988 
	C984.680481,422.927124 985.293152,420.118011 986.018311,416.792847 
	C983.244568,416.792847 981.095398,416.897003 978.961121,416.763702 
	C976.808533,416.629211 974.633240,416.427582 972.533569,415.960114 
	C966.497559,414.616089 964.647644,411.952484 965.826111,405.968964 
	C968.203613,393.898163 970.641968,381.836517 973.351501,369.837982 
	C973.650879,368.512421 975.797607,366.820190 977.223633,366.679657 
	C981.513184,366.256989 985.902588,366.854340 990.193542,366.438934 
	C998.278625,365.656219 1006.562866,365.334595 1014.335388,363.234039 
	C1033.809814,357.970978 1048.570312,343.458069 1050.445312,316.664978 
	C1052.022583,294.125702 1039.295898,276.221436 1016.976318,274.223236 
	C995.171448,272.271057 973.141541,272.832306 951.027344,272.285706 
	C950.265747,275.930298 949.678589,278.740234 948.987488,282.047424 
	C951.327698,282.047424 952.979492,281.968079 954.621643,282.060577 
	C963.789001,282.576874 966.507385,285.300079 964.974792,294.282166 
	C962.879883,306.560455 959.975586,318.700653 957.237732,331.722900 
M769.811829,287.302948 
	C742.196411,311.557953 730.907043,342.710022 732.431641,378.674408 
	C733.185120,396.448151 739.964294,412.037598 756.470886,421.036591 
	C774.105225,430.650330 792.831238,431.056793 811.581909,424.563354 
	C820.164978,421.590973 827.122192,416.078827 830.267944,407.056915 
	C831.660400,403.063477 832.162476,398.896545 829.097168,394.693909 
	C827.017639,396.934540 825.476562,398.660431 823.866089,400.318939 
	C817.208984,407.174408 809.549255,412.251160 799.839111,413.536194 
	C777.042236,416.552979 760.449219,407.083618 758.197693,382.171875 
	C757.661682,376.240967 757.695007,370.171539 758.266846,364.243011 
	C760.473083,341.370605 766.672668,319.787415 780.647400,301.101288 
	C787.467773,291.981567 795.867371,284.878204 807.531799,282.504944 
	C820.414490,279.883881 829.102112,285.798462 831.031799,298.846832 
	C831.634949,302.925598 832.029907,307.035156 832.595093,311.757233 
	C835.425293,311.416077 838.237366,311.395477 840.874634,310.706085 
	C854.915588,307.035736 859.702454,291.410034 849.608215,280.969330 
	C846.183350,277.426910 841.359436,274.400513 836.633972,273.092773 
	C812.334473,266.367981 790.237244,271.555298 769.811829,287.302948 
M490.819519,140.106079 
	C485.397644,165.778656 480.032440,191.463364 474.530090,217.118683 
	C471.763519,230.018005 471.072815,230.522430 458.080536,232.297394 
	C457.794006,232.336533 457.544250,232.644867 457.191650,232.886322 
	C456.771057,234.897018 456.336670,236.973572 455.891541,239.101425 
	C456.733368,239.364136 457.184540,239.628464 457.635345,239.627838 
	C474.785034,239.604004 491.938324,239.750793 509.082855,239.430588 
	C517.971191,239.264572 526.618103,237.410477 534.349487,232.612457 
	C545.933899,225.423355 549.696472,214.260376 549.631104,201.454010 
	C549.574768,190.438278 544.143005,182.929642 533.652039,179.222748 
	C533.405212,179.135544 533.276489,178.714371 533.209839,178.618195 
	C537.265869,176.405914 541.648315,174.614029 545.341125,171.887955 
	C555.951050,164.055695 558.464233,153.012970 555.908752,140.767288 
	C553.691528,130.142365 545.398376,125.024734 535.687683,124.255859 
	C517.340149,122.803146 498.879028,122.784996 480.287750,122.164772 
	C479.712158,125.377472 479.320435,127.563942 478.927643,129.756317 
	C491.277985,131.755661 491.277985,131.755661 490.819519,140.106079 
M958.997131,123.295959 
	C943.856140,123.113907 928.715332,122.906898 913.573975,122.761612 
	C907.176208,122.700226 906.685608,123.341690 907.495605,130.082214 
	C908.126404,130.155106 908.776184,130.250137 909.429382,130.302673 
	C918.991699,131.071411 920.163025,132.544983 918.217224,141.833801 
	C912.906921,167.184860 907.560364,192.528351 902.199341,217.868759 
	C899.707153,229.648285 898.303772,230.902664 886.685547,232.177078 
	C886.208618,232.229401 885.750732,232.456131 885.153625,232.642212 
	C884.706665,234.836807 884.259094,237.034531 883.870056,238.944824 
	C903.854004,238.944824 923.300781,239.000336 942.746399,238.878998 
	C945.362793,238.862686 948.013367,238.107498 950.580566,237.436020 
	C968.444336,232.763412 978.024841,220.079834 977.545471,201.661713 
	C977.273438,191.209213 972.918335,183.446060 962.586365,179.814209 
	C961.995544,179.606537 961.498535,179.131897 960.617371,178.560822 
	C963.877747,177.021835 966.918396,175.822556 969.728516,174.219070 
	C981.562134,167.466736 986.626648,155.963730 984.089600,141.960587 
	C982.226257,131.676605 974.756104,125.774269 960.867920,123.610352 
	C960.539062,123.559113 960.213257,123.488968 958.997131,123.295959 
M874.755859,276.193176 
	C874.426208,277.945618 874.096497,279.698029 873.705750,281.775269 
	C876.269409,281.903717 878.409973,281.905273 880.525574,282.135712 
	C888.520935,283.006531 890.674927,285.660492 889.866516,293.555023 
	C889.748352,294.708557 889.492981,295.851227 889.252197,296.988525 
	C882.091553,330.809998 874.943787,364.634216 867.750183,398.448700 
	C864.556519,413.460846 861.926208,415.692230 846.443237,416.935059 
	C846.132507,416.959991 845.835327,417.152832 845.152893,417.410278 
	C844.668457,420.014771 844.149048,422.807251 843.603271,425.741486 
	C864.359070,425.741486 884.456360,425.741486 904.762451,425.741486 
	C905.443726,422.859863 906.084290,420.150726 906.790527,417.163422 
	C904.086060,416.893097 901.607727,416.771515 899.173157,416.379120 
	C890.855774,415.038574 888.983948,412.365784 890.718018,404.124420 
	C898.040710,369.322845 905.349487,334.518127 912.789246,299.741486 
	C915.912842,285.140167 919.148010,282.578430 933.982483,281.922577 
	C934.286743,281.909149 934.581604,281.682251 935.217407,281.411743 
	C935.731018,278.874451 936.284973,276.137634 936.952087,272.841766 
	C916.859192,272.841766 897.079041,272.813385 877.299988,272.946594 
	C876.516663,272.951874 875.743652,274.495331 874.755859,276.193176 
M648.831421,166.223145 
	C648.510071,167.685715 648.189392,169.148422 647.867188,170.610840 
	C644.897095,184.091904 642.538147,197.745132 638.801941,211.010422 
	C634.112854,227.659210 621.195496,234.632019 604.405884,230.816788 
	C596.085754,228.926147 591.804871,223.789459 591.676331,215.308075 
	C591.636047,212.652161 591.651672,209.925644 592.180725,207.341812 
	C596.719177,185.177216 601.309692,163.022598 606.051086,140.900665 
	C607.454346,134.353012 610.811584,131.161285 617.438843,131.004013 
	C622.545776,130.882828 623.551025,128.408890 623.508484,123.947762 
	C608.085327,123.947762 592.718567,123.947762 577.185913,123.947762 
	C576.758423,126.126350 576.385376,128.027695 575.927185,130.362503 
	C578.070190,130.556229 579.847656,130.649353 581.605286,130.888290 
	C587.217590,131.651184 588.747375,133.662094 588.022522,139.289154 
	C587.852844,140.606628 587.574585,141.911987 587.305969,143.214630 
	C582.972290,164.232758 578.434326,185.211258 574.359009,206.279297 
	C571.355469,221.807129 577.107361,233.341095 589.671448,238.467194 
	C617.017273,249.624176 643.430786,236.319885 649.966980,207.696091 
	C654.927979,185.970703 659.250916,164.099945 663.903809,142.303665 
	C665.546509,134.608032 668.309692,131.335358 675.163086,131.061478 
	C680.292114,130.856506 681.679443,128.650650 681.563049,123.603760 
	C670.670166,123.603760 659.896179,123.602211 649.122253,123.604332 
	C642.805176,123.605576 642.671570,123.752029 642.943909,130.559998 
	C643.881165,130.612991 644.848511,130.660721 645.815002,130.723419 
	C654.065491,131.258652 655.680603,133.375092 653.980896,141.457413 
	C652.303467,149.433746 650.610779,157.406845 648.831421,166.223145 
M1078.537842,239.220932 
	C1078.688110,239.293091 1078.838013,239.428024 1078.988525,239.428528 
	C1105.300049,239.516251 1131.611450,239.614761 1157.922974,239.597427 
	C1158.962158,239.596756 1160.712769,238.679108 1160.929932,237.867218 
	C1163.277832,229.089996 1165.384521,220.248230 1167.565552,211.389542 
	C1159.337280,209.977234 1159.393555,209.999527 1156.579346,217.102661 
	C1153.960815,223.711761 1150.282959,229.855164 1142.477173,230.347809 
	C1132.583618,230.972198 1122.620605,230.498764 1112.126709,230.498764 
	C1115.389160,215.384354 1118.503296,200.624207 1121.897705,185.928833 
	C1122.142334,184.869522 1124.415894,183.618790 1125.774414,183.584503 
	C1134.266113,183.370117 1142.765747,183.478073 1151.262817,183.476135 
	C1158.666504,183.474457 1158.949707,183.155838 1158.766113,174.496246 
	C1147.383423,174.496246 1135.974487,174.496246 1124.109985,174.496246 
	C1126.934448,160.679535 1129.548828,147.484650 1132.463379,134.356461 
	C1132.712280,133.235565 1134.930420,131.847687 1136.281128,131.794739 
	C1142.935059,131.533905 1149.606934,131.580002 1156.268799,131.711975 
	C1163.928345,131.863693 1167.718262,136.398911 1166.867065,144.105026 
	C1166.599243,146.528488 1166.348389,148.953842 1166.065430,151.607269 
	C1169.293335,151.607269 1172.024658,151.607269 1174.959961,151.607269 
	C1176.708496,142.062225 1178.411743,132.763702 1180.186157,123.077179 
	C1154.069580,123.077179 1128.336792,123.077179 1102.310181,123.077179 
	C1101.869385,125.423431 1101.460205,127.602196 1101.027710,129.905029 
	C1102.296387,130.105408 1102.940918,130.244064 1103.592773,130.304611 
	C1112.867676,131.166504 1114.385498,133.309875 1112.392212,142.574097 
	C1110.922974,149.403915 1109.537354,156.251755 1108.100830,163.088669 
	C1104.063965,182.299042 1100.043701,201.512970 1095.966553,220.714828 
	C1094.394897,228.116409 1091.613647,231.502167 1085.007812,231.602020 
	C1079.689819,231.682373 1078.614868,234.340622 1078.537842,239.220932 
M1071.984009,145.286789 
	C1071.859741,147.384735 1071.735596,149.482697 1071.538208,152.819290 
	C1075.121826,151.765335 1079.943604,151.487869 1080.318604,150.050156 
	C1082.604858,141.288208 1083.880127,132.262527 1085.597168,122.745041 
	C1083.104980,122.745041 1081.313110,122.745033 1079.521240,122.745033 
	C1057.531860,122.745033 1035.542603,122.743690 1013.553223,122.745850 
	C1006.876221,122.746506 1006.826233,122.804688 1006.991211,130.036484 
	C1008.424988,130.186661 1009.893250,130.304031 1011.351074,130.499496 
	C1017.542419,131.329590 1019.579712,133.904373 1018.305237,140.015244 
	C1012.629944,167.226028 1006.891541,194.423965 1001.054810,221.600555 
	C999.552368,228.596298 996.731812,230.957748 989.961487,231.830322 
	C983.995300,232.599274 983.652466,233.051147 984.328308,239.671371 
	C1010.751953,239.671371 1037.214844,239.694138 1063.677124,239.580383 
	C1064.641968,239.576248 1066.224487,238.397842 1066.465942,237.487442 
	C1068.754639,228.854874 1070.814941,220.161743 1072.943115,211.477036 
	C1064.804321,209.769867 1064.723999,209.819427 1062.016113,216.899384 
	C1059.245239,224.143936 1055.086914,230.194336 1046.579468,230.578934 
	C1037.127441,231.006210 1027.641235,230.676727 1018.143433,230.676727 
	C1018.032837,229.926270 1017.816895,229.413025 1017.911560,228.965424 
	C1020.941589,214.637268 1023.929871,200.298996 1027.199829,186.025299 
	C1027.448853,184.938568 1029.707031,183.629028 1031.063843,183.591248 
	C1039.220215,183.364029 1047.386108,183.478958 1055.548828,183.477982 
	C1063.756226,183.477005 1063.756226,183.476318 1064.391235,174.601501 
	C1052.977051,174.601501 1041.586304,174.601501 1030.217285,174.601501 
	C1030.043579,173.599442 1029.812500,173.097031 1029.901733,172.660019 
	C1032.532349,159.779892 1035.128906,146.891632 1037.979736,134.059998 
	C1038.202148,133.059036 1040.215088,131.826157 1041.434814,131.782150 
	C1047.756958,131.554092 1054.091919,131.632324 1060.421753,131.689194 
	C1069.421387,131.770050 1072.508057,135.165573 1071.984009,145.286789 
M745.080566,198.667389 
	C742.597168,189.210312 736.037659,182.944260 728.423584,177.557175 
	C723.802490,174.287674 718.914124,171.381943 714.408081,167.966705 
	C706.249939,161.783401 703.664673,153.272827 706.610168,143.545029 
	C709.186096,135.037735 717.070862,130.064804 726.857117,130.775253 
	C734.125305,131.302902 738.688171,136.244125 740.188599,145.245895 
	C740.533936,147.317596 740.810303,149.400803 741.104614,151.385773 
	C749.295654,151.538849 753.748535,149.030334 755.599731,143.516739 
	C757.529907,137.767639 755.502747,131.731873 749.883667,127.800484 
	C747.471252,126.112709 744.662781,124.242294 741.884277,123.966736 
	C733.520508,123.137230 724.903015,121.772964 716.709900,122.927299 
	C696.564819,125.765541 685.391724,142.647583 689.237183,162.526154 
	C691.266785,173.017838 698.400208,179.582031 706.604004,185.357803 
	C711.636292,188.900711 716.974915,192.092850 721.606567,196.100632 
	C728.629150,202.177322 730.589905,212.248245 727.155029,220.790222 
	C723.993164,228.653091 716.461792,233.017639 706.539673,232.737122 
	C696.618591,232.456650 689.944885,226.990387 687.102234,216.441544 
	C686.128967,212.829575 685.781982,209.048843 685.156372,205.389572 
	C674.721863,205.844070 669.531738,212.193283 671.591858,221.929581 
	C673.419861,230.568893 679.251343,235.849014 687.189270,238.725174 
	C697.312317,242.393097 707.789001,242.531830 718.240479,240.297562 
	C738.630249,235.938721 749.078613,220.044373 745.080566,198.667389 
M803.030273,225.417084 
	C805.072388,215.137802 807.105713,204.856735 809.178101,194.583527 
	C809.304688,193.955948 809.662476,193.334106 810.044556,192.804810 
	C823.890808,173.625381 837.700867,154.419205 851.693726,135.347153 
	C853.076538,133.462326 855.521118,131.317200 857.594360,131.184128 
	C862.659851,130.858978 863.544800,128.206711 863.245483,123.601624 
	C852.520691,123.601624 841.884399,123.867966 831.271240,123.488274 
	C826.032898,123.300873 824.425232,125.310326 825.091675,130.444565 
	C827.409912,130.566772 829.697876,130.653992 831.980774,130.815079 
	C836.007568,131.099213 837.721985,133.164902 836.634949,137.167603 
	C836.200928,138.765991 835.835388,140.498581 834.941772,141.838821 
	C825.377869,156.183212 815.714172,170.461151 806.000916,184.871552 
	C802.105225,169.847900 798.197327,155.308899 794.600098,140.693420 
	C792.627380,132.678268 794.351990,130.753677 802.546204,130.676102 
	C808.183289,130.622742 808.484009,130.266846 808.218750,123.601662 
	C795.921387,123.601662 783.598877,123.865997 771.296936,123.478058 
	C766.006836,123.311241 763.996399,125.105629 764.577942,130.702576 
	C771.782898,129.466934 773.436584,134.605011 775.021362,139.980942 
	C778.315308,151.154236 781.113586,162.525345 785.238647,173.388702 
	C790.327820,186.791107 791.669556,199.988586 787.004517,213.646652 
	C786.629639,214.744217 786.423523,215.904465 786.198425,217.047302 
	C783.508789,230.703384 782.242310,231.811737 768.282837,232.721939 
	C767.979614,232.741714 767.689880,232.967987 767.053467,233.247314 
	C766.672241,235.075516 766.249329,237.103653 765.713196,239.674561 
	C780.906494,239.674561 795.386780,239.436691 809.851990,239.798935 
	C815.172974,239.932190 817.082092,238.145203 816.422241,232.922195 
	C813.595215,232.604187 810.793457,232.384125 808.024658,231.952438 
	C804.856812,231.458542 802.809998,229.820908 803.030273,225.417084 
M292.401398,432.091034 
	C291.118042,435.761841 292.487366,438.397522 295.706696,440.181549 
	C298.365875,441.655243 301.110474,442.974609 303.815125,444.366425 
	C306.739929,445.871460 309.055237,447.256561 307.359039,451.517029 
	C305.654907,455.797424 308.292480,459.668854 312.317200,459.587402 
	C314.129456,459.550690 316.059570,458.807861 317.700378,457.939636 
	C325.653290,453.731506 333.685577,449.628632 341.315948,444.886932 
	C343.237518,443.692810 344.528229,440.322205 344.660522,437.873505 
	C344.732422,436.542145 341.654480,433.778137 340.183014,433.900177 
	C337.484619,434.123962 334.555725,435.551117 332.389954,437.301727 
	C328.952148,440.080505 325.565979,440.918884 321.567596,439.147491 
	C314.824799,436.160278 308.095947,433.141296 301.371887,430.111969 
	C298.246368,428.703888 295.246521,427.869507 292.401398,432.091034 
M352.785339,443.035950 
	C350.414825,445.150635 348.607117,447.642456 351.046478,450.573303 
	C352.332886,452.118866 354.842926,454.120178 356.327209,453.789764 
	C366.690063,451.482941 377.001801,448.860382 387.163635,445.788910 
	C390.224548,444.863739 392.531616,441.620209 390.472992,438.271393 
	C389.318420,436.393250 386.055115,434.166992 384.308441,434.567596 
	C373.977539,436.937073 363.812744,440.030853 352.785339,443.035950 
M334.561676,368.925995 
	C338.038788,369.709076 341.358124,369.863159 342.948364,365.806763 
	C344.042389,363.016235 343.285706,360.362335 340.664337,359.018463 
	C329.618652,353.355927 318.048187,352.326630 306.208344,356.093567 
	C303.424500,356.979279 301.441223,359.125610 302.028503,362.502411 
	C302.647156,366.059631 305.061829,367.229370 308.395142,366.990387 
	C309.530212,366.908997 310.662598,366.764709 311.789917,366.604797 
	C319.310791,365.537872 326.773834,365.142548 334.561676,368.925995 
M354.075256,405.632538 
	C353.600525,408.007202 353.488281,410.533508 352.572052,412.723450 
	C350.909241,416.697662 352.599182,419.450653 355.831390,420.754120 
	C359.252441,422.133728 362.301086,420.641388 363.608673,416.867798 
	C367.374542,405.999573 367.365173,395.100128 363.650879,384.222229 
	C362.371552,380.475647 359.394745,378.872620 355.920807,380.208405 
	C352.641296,381.469482 351.408752,384.099213 352.429993,388.201324 
	C353.777954,393.615967 353.931335,399.328003 354.075256,405.632538 
M285.958344,402.965576 
	C285.649292,402.056366 284.900635,401.033447 285.101624,400.256134 
	C286.539978,394.694000 288.126526,389.168488 289.758850,383.658813 
	C290.735931,380.360687 290.654724,377.387054 287.179779,375.713226 
	C283.457123,373.920166 280.582367,375.053894 279.030701,378.927856 
	C277.425018,382.936676 275.018311,386.919464 274.651764,391.063141 
	C274.051636,397.847168 274.417542,404.804260 275.294434,411.569305 
	C275.511841,413.246674 279.278381,415.635254 281.370209,415.592255 
	C283.807556,415.542145 286.505890,413.512146 286.041626,409.828766 
	C285.794586,407.868896 285.995300,405.852539 285.958344,402.965576 
M250.008881,443.506989 
	C246.038376,447.550476 245.885269,450.839722 250.052078,452.936920 
	C259.787140,457.836731 270.051758,461.133575 281.005066,462.014374 
	C284.655975,462.307983 287.260254,460.816498 287.898376,457.293701 
	C288.543823,453.730835 286.679169,451.792206 282.951385,450.868896 
	C273.138702,448.438507 263.439087,445.553894 253.672348,442.932465 
	C252.730392,442.679657 251.634201,443.001526 250.008881,443.506989 
M230.049835,423.573120 
	C228.022934,421.205292 225.989914,418.842621 223.970642,416.468323 
	C221.320633,413.352386 218.051636,412.370605 214.730331,414.901794 
	C211.377243,417.457153 212.648148,421.022949 214.439117,423.778687 
	C216.387894,426.777283 219.087479,429.293427 221.500366,431.983459 
	C224.393250,435.208649 227.870132,438.747345 232.057129,435.129059 
	C236.234985,431.518738 233.497009,427.470947 230.049835,423.573120 
M417.626495,424.055573 
	C415.819000,424.695343 413.414185,424.829559 412.344391,426.093689 
	C410.748260,427.979706 408.977997,430.884491 409.387024,432.936127 
	C409.720337,434.607819 413.388947,437.050812 415.145325,436.735809 
	C420.633423,435.751617 426.042450,433.929596 431.222809,431.801270 
	C433.643890,430.806610 436.097504,428.710602 434.618256,425.122223 
	C433.204285,421.692078 430.456024,420.481598 427.135681,421.118988 
	C424.165924,421.689026 421.332611,422.970001 417.626495,424.055573 
z"/>
<path fill="#E3D984" opacity="1.000000" stroke="none" 
	d="
M52.281487,289.774963 
	C37.089241,276.864777 27.411076,260.448608 21.245991,242.388397 
	C13.952030,221.021194 15.172900,199.429932 24.143843,178.384232 
	C30.869448,162.606064 40.753532,149.972137 56.266174,141.900452 
	C76.101463,131.579575 96.157631,131.749252 116.706444,139.276749 
	C130.479919,144.322281 144.336792,149.143372 158.204361,153.925674 
	C160.455917,154.702133 162.957458,154.753662 165.343460,155.140274 
	C164.890320,152.387314 164.858414,149.480362 163.917191,146.905838 
	C156.594467,126.875610 159.235168,108.258659 171.549194,90.968338 
	C179.523483,79.771507 190.590088,72.880959 203.608734,69.248940 
	C207.665344,68.117203 207.461029,66.402039 205.934540,63.726688 
	C199.001251,51.575245 190.212006,42.149982 174.797882,41.912045 
	C170.089996,41.839367 166.651245,38.497482 167.424133,35.293983 
	C168.382980,31.319769 171.107910,29.583078 175.401642,29.957787 
	C190.339417,31.261379 202.430481,37.485535 210.991257,50.018169 
	C212.635391,52.425114 214.109924,54.948673 215.776047,57.339451 
	C216.464325,58.327095 217.662415,59.950069 218.257370,59.801121 
	C219.412888,59.511829 220.639175,58.358334 221.255569,57.242241 
	C226.733887,47.323090 233.687683,38.686405 244.423370,34.426666 
	C250.337830,32.079906 256.886627,31.223089 263.219788,30.086626 
	C266.345642,29.525705 268.562347,31.320528 268.957458,34.618279 
	C269.342682,37.833366 268.837799,40.388474 264.772003,41.144596 
	C259.590179,42.108265 254.340134,43.184345 249.432419,45.039684 
	C240.140411,48.552483 235.163467,56.511868 230.676437,64.781982 
	C229.174240,67.550682 230.369965,68.379318 233.097198,69.117584 
	C243.806320,72.016579 253.178360,77.384041 260.888245,85.419243 
	C276.347473,101.530869 281.584869,126.499588 272.841553,147.521072 
	C272.532043,148.265182 272.107697,149.007767 272.012451,149.784836 
	C271.831085,151.264191 271.363129,153.824738 271.876556,154.060867 
	C273.338379,154.733032 275.394775,154.965912 276.930939,154.475357 
	C283.682953,152.319031 290.304199,149.757538 297.028137,147.508194 
	C308.803589,143.568985 320.538757,139.477921 332.439819,135.953659 
	C346.257690,131.861786 359.916870,133.304581 373.185394,138.651688 
	C393.637451,146.893692 406.619629,162.055649 414.053589,182.531479 
	C418.288116,194.194870 420.736908,206.150299 419.900879,218.485046 
	C418.697418,236.240585 413.596283,252.835770 403.043793,267.455719 
	C399.432312,272.459259 395.901886,277.531036 392.080536,282.371185 
	C385.594727,290.586212 377.013947,296.399414 367.337646,299.608734 
	C358.667450,302.484375 349.329834,304.554077 340.248444,304.706757 
	C325.857605,304.948669 312.545563,300.079010 300.882599,291.332672 
	C297.652161,288.910034 295.505127,289.493134 293.946136,293.170197 
	C284.636566,315.127228 268.815094,330.307739 246.565018,338.926117 
	C244.541245,339.709991 242.264893,341.472107 241.405930,343.368744 
	C235.746048,355.865906 230.274368,368.456512 225.134903,381.175629 
	C223.756989,384.585663 222.333939,386.966888 218.428421,386.995178 
	C214.680542,387.022308 213.239044,384.359070 212.000290,381.461456 
	C206.671692,368.997253 201.518295,356.452484 195.860367,344.139587 
	C194.736618,341.694061 191.997498,339.288635 189.450745,338.325104 
	C180.185349,334.819580 172.222427,329.445129 164.645737,323.216705 
	C154.439865,314.827026 147.843445,304.061951 142.910004,292.027954 
	C141.805679,289.334198 140.126404,287.715973 136.896408,290.469086 
	C127.768768,298.249054 116.746498,301.809143 105.158463,304.019470 
	C90.776619,306.762695 77.360184,303.214386 64.381233,297.606171 
	C60.136799,295.772095 56.474178,292.591553 52.281487,289.774963 
M261.062958,144.631760 
	C261.380280,144.058258 261.795471,143.517624 262.000580,142.906464 
	C267.482574,126.572952 265.920013,111.576561 255.216400,97.348824 
	C244.303253,82.842552 223.871567,75.910927 206.931641,80.517853 
	C186.473679,86.081528 170.914200,105.391861 171.812561,127.598412 
	C172.721497,150.066101 188.558365,167.729355 210.526382,171.972626 
	C213.237122,172.496231 216.124115,173.271454 218.747726,172.835785 
	C223.965622,171.969269 229.026749,170.204788 234.206543,169.053909 
	C247.520218,166.095764 255.065048,156.688019 261.062958,144.631760 
M405.950775,194.792816 
	C404.560638,190.675644 403.293732,186.511322 401.741425,182.456238 
	C400.500122,179.213577 398.825623,177.744690 395.086792,180.267715 
	C376.713867,192.666107 358.141632,204.768982 339.752777,217.144119 
	C338.476044,218.003311 337.302002,220.316605 337.466095,221.800430 
	C338.412262,230.355621 339.889008,238.850281 340.972168,247.392578 
	C342.736450,261.306824 344.273743,275.250244 346.127808,289.151917 
	C346.270172,290.219360 348.306702,291.986938 349.207367,291.841980 
	C354.117798,291.051666 359.185669,290.358551 363.759796,288.531494 
	C375.624115,283.792450 384.004822,275.032043 391.146515,264.523682 
	C405.463837,243.457077 411.748047,220.916260 405.950775,194.792816 
M98.992172,224.408188 
	C99.585732,220.360977 97.986572,217.882294 94.399841,215.616821 
	C84.548447,209.394409 75.059227,202.600479 65.390244,196.086792 
	C57.475380,190.754807 49.525024,185.474930 41.555134,180.225494 
	C38.680431,178.332031 36.491302,178.752136 34.994545,182.185379 
	C28.518871,197.039154 27.286619,212.517502 30.042608,228.260635 
	C33.820705,249.842361 44.471680,267.682617 61.279900,281.648102 
	C68.317009,287.495026 76.485718,291.393372 85.885735,292.005554 
	C88.386398,292.168427 89.851517,291.592529 90.089836,288.567596 
	C90.510750,283.225037 91.441025,277.922302 92.166016,272.604004 
	C93.440887,263.252075 94.685585,253.895798 96.012535,244.551208 
	C96.925766,238.120010 97.956482,231.705490 98.992172,224.408188 
M373.242004,151.035980 
	C364.965637,149.026825 356.700684,145.493988 348.409760,145.432098 
	C339.922089,145.368759 331.165314,147.970764 322.953369,150.693924 
	C299.552002,158.454071 276.358368,166.842560 253.116943,175.079590 
	C251.286880,175.728195 249.719315,177.117432 248.029739,178.162460 
	C249.614670,179.551987 251.167831,180.980713 252.804398,182.306503 
	C253.278503,182.690536 253.989471,182.785675 254.595703,183.002579 
	C278.413391,191.524704 302.206757,200.116760 326.095734,208.434219 
	C328.046692,209.113495 331.103943,208.625366 332.880585,207.485199 
	C351.262848,195.688385 369.498566,183.662781 387.747498,171.658966 
	C391.936340,168.903656 392.262451,166.390717 388.420441,163.010361 
	C383.777466,158.925308 378.766052,155.258957 373.242004,151.035980 
M49.595474,171.943619 
	C67.261368,183.649551 84.863235,195.454910 102.679962,206.926575 
	C104.740730,208.253433 108.328758,208.701370 110.644890,207.908920 
	C135.331238,199.462784 159.916229,190.718704 184.474884,181.905426 
	C185.884872,181.399399 186.824646,179.583069 187.983261,178.376541 
	C186.790161,177.506058 185.670868,176.499481 184.384109,175.801712 
	C182.976608,175.038422 181.433777,174.505829 179.916534,173.966614 
	C159.421570,166.683029 138.977402,159.250290 118.398643,152.211182 
	C107.327583,148.424255 96.342079,144.837906 84.073448,145.759171 
	C69.927666,146.821411 58.577812,152.683380 48.572300,161.984528 
	C43.269478,166.914047 43.438702,167.506195 49.595474,171.943619 
M155.907104,284.999786 
	C196.869965,284.999847 237.832886,285.026337 278.795471,284.922058 
	C280.844696,284.916840 284.420990,284.119415 284.648102,283.101959 
	C285.295380,280.202332 285.575226,276.429382 284.203369,274.024902 
	C280.680542,267.850281 275.950439,262.377106 272.176971,256.327820 
	C270.183502,253.132095 268.000824,251.907669 264.247772,251.924255 
	C233.775970,252.059067 203.302567,252.101639 172.831879,251.874207 
	C168.926376,251.845062 166.452560,253.388062 164.521149,256.083801 
	C160.185242,262.135590 156.076736,268.353729 151.988632,274.578369 
	C149.661621,278.121552 151.232071,283.247986 155.907104,284.999786 
M127.743088,214.050201 
	C123.366928,215.698669 118.902229,217.154160 114.662193,219.099335 
	C113.159622,219.788635 111.447189,221.516510 111.137398,223.036591 
	C110.100601,228.123764 109.707390,233.338882 108.972404,238.491409 
	C106.673546,254.607193 104.300987,270.712494 102.025093,286.831482 
	C101.398224,291.271179 102.984207,292.992767 107.370811,291.910278 
	C116.574249,289.638977 125.122055,285.884064 132.209381,279.307068 
	C144.202103,268.177917 151.631241,253.652359 160.986282,240.573441 
	C170.696381,226.998138 179.921509,213.074661 189.264145,199.239594 
	C190.302765,197.701569 190.723541,195.746368 191.430862,193.984634 
	C189.303223,193.976639 186.976517,193.393234 185.078735,194.049713 
	C166.194519,200.582199 147.381134,207.319427 127.743088,214.050201 
M332.057007,274.200043 
	C332.026520,272.202118 332.179260,270.181549 331.935852,268.209900 
	C330.337616,255.264252 328.971893,242.274933 326.780701,229.427704 
	C326.213348,226.101242 328.094208,221.214264 322.820496,219.351547 
	C298.504608,210.763046 274.230560,202.055832 249.893890,193.527145 
	C248.634506,193.085800 246.935577,193.898682 245.441315,194.127640 
	C245.776581,195.410797 245.788254,196.916275 246.494629,197.944473 
	C262.829834,221.721924 279.163605,245.501190 295.669586,269.160126 
	C303.926422,280.995148 315.238739,288.514679 329.364716,291.741730 
	C332.505249,292.459198 334.314789,291.633087 333.980469,288.143433 
	C333.560059,283.755188 332.999725,279.380371 332.057007,274.200043 
M270.020905,309.467957 
	C271.653198,307.426178 273.482330,305.506378 274.849274,303.300201 
	C275.777527,301.802063 276.057495,299.902252 276.627380,298.182068 
	C274.939301,297.788055 273.251892,297.053375 271.563080,297.050201 
	C236.262787,296.983704 200.962326,296.999969 165.661911,297.000061 
	C164.829346,297.000061 163.987381,296.920502 163.165909,297.016266 
	C160.135223,297.369629 158.762894,298.824982 161.055176,301.454498 
	C165.207108,306.217255 169.261414,311.152679 173.964615,315.331573 
	C190.725388,330.223938 210.650848,334.545319 232.238937,330.740875 
	C246.834686,328.168732 258.984741,320.306824 270.020905,309.467957 
M186.544952,224.954422 
	C184.214920,228.268326 181.804733,231.530228 179.601074,234.926132 
	C178.890671,236.020874 178.723694,237.468231 178.308121,238.754288 
	C179.655151,239.169479 181.001083,239.942535 182.349380,239.946686 
	C206.170486,240.020081 229.991943,240.022079 253.813004,239.940353 
	C255.137390,239.935822 257.341522,239.337082 257.579895,238.545975 
	C257.960754,237.282028 257.396271,235.388947 256.603088,234.171143 
	C251.302765,226.033401 245.999435,217.885162 240.290192,210.036316 
	C239.094025,208.391846 236.254227,207.295654 234.083633,207.134415 
	C228.616577,206.728317 223.098694,206.955261 217.602051,207.011642 
	C211.134842,207.077988 203.745300,205.341934 198.478653,207.914597 
	C193.826294,210.187180 191.538010,217.303619 188.214172,222.286850 
	C187.769348,222.953751 187.373001,223.652985 186.544952,224.954422 
M220.502350,361.979919 
	C222.534546,357.277527 224.596466,352.587677 226.587021,347.867706 
	C227.652512,345.341248 226.547928,344.071869 223.981491,344.020844 
	C220.344421,343.948517 216.704224,343.960449 213.066574,344.016663 
	C210.514191,344.056091 209.350388,345.280060 210.394394,347.823608 
	C212.217728,352.265900 213.980331,356.747711 216.138550,361.026245 
	C216.598938,361.938934 218.641418,362.053619 220.502350,361.979919 
M212.928741,194.999817 
	C216.427658,194.999512 219.930252,195.099350 223.424469,194.971069 
	C227.007111,194.839569 228.081177,192.850189 226.234131,189.801834 
	C224.164627,186.386368 222.075241,183.398224 217.060745,183.860901 
	C212.402573,184.290680 211.701431,188.042099 209.778259,190.780014 
	C208.016235,193.288483 209.103699,194.755753 212.928741,194.999817 
z"/>
<path fill="#E0D682" opacity="1.000000" stroke="none" 
	d="
M464.349243,416.504761 
	C473.493103,415.563721 477.798706,410.449554 479.539795,402.082642 
	C486.857941,366.915283 494.408722,331.796295 501.849091,296.654236 
	C502.123291,295.359131 502.142914,294.009155 502.267456,292.683472 
	C502.910126,285.842010 501.354797,283.661163 494.536285,282.413666 
	C491.951019,281.940674 489.275543,281.961029 486.023895,281.708588 
	C486.724274,278.666168 487.369324,275.863892 488.198761,272.260803 
	C512.020874,272.827423 535.690552,272.584564 559.232788,274.199951 
	C578.807251,275.543091 589.689026,288.843872 589.762329,308.323425 
	C589.843323,329.831879 579.925537,343.912109 559.039246,351.934845 
	C557.201782,352.640625 555.356812,353.326904 552.924927,354.245178 
	C554.987610,361.082397 556.937744,367.714355 558.991333,374.314178 
	C562.103455,384.315735 565.095276,394.361115 568.505432,404.261353 
	C570.971252,411.420044 575.065125,417.154510 583.608765,416.768402 
	C583.868164,417.537872 584.098328,417.859406 584.051086,418.133026 
	C582.666992,426.142914 582.657104,426.258209 574.500122,425.876129 
	C570.523682,425.689819 566.540527,425.156647 562.614746,424.469879 
	C550.659485,422.378540 545.011719,414.013519 542.047180,403.214233 
	C538.349487,389.743958 534.668030,376.266663 531.246948,362.724823 
	C530.430786,359.493866 529.044006,358.573608 525.815125,358.583618 
	C512.665161,358.624390 512.709961,358.525177 510.051239,371.377655 
	C507.861328,381.963867 505.593201,392.534485 503.275177,403.093445 
	C501.268860,412.232452 503.368896,415.394440 512.670105,416.516876 
	C515.944946,416.912079 519.273438,416.862915 523.080200,417.040009 
	C522.354736,420.191528 521.706909,423.005737 521.069946,425.773010 
	C499.185699,425.773010 477.726929,425.773010 456.248566,425.773010 
	C457.113129,417.034668 457.113129,417.034668 464.349243,416.504761 
M563.025024,297.789642 
	C560.974854,289.264893 555.219299,284.824097 546.853088,283.777527 
	C542.088440,283.181488 537.216980,283.494385 532.416077,283.113800 
	C529.484619,282.881378 528.353516,283.935638 527.796875,286.791595 
	C525.603516,298.044708 523.188660,309.255005 520.815491,320.472626 
	C518.906494,329.496613 516.939209,338.508240 514.929688,347.841675 
	C521.762695,347.841675 527.950562,348.332123 534.034058,347.744049 
	C548.672852,346.328918 559.614380,337.818909 562.283264,324.284790 
	C563.917786,315.995789 562.947083,307.193054 563.025024,297.789642 
z"/>
<path fill="#DFD682" opacity="1.000000" stroke="none" 
	d="
M708.064453,393.080017 
	C705.617371,403.006683 703.238647,412.522156 700.936157,422.056030 
	C700.405273,424.254242 700.054626,426.040863 696.979919,426.032623 
	C661.849548,425.938263 626.718689,425.972595 591.610474,425.972595 
	C590.889282,417.878387 591.795959,416.700745 599.260498,415.761414 
	C608.251526,414.629974 612.050598,411.678223 614.002625,402.727173 
	C620.166443,374.462982 626.046265,346.136841 632.022034,317.831696 
	C633.464478,310.999451 634.833557,304.151672 636.271057,297.318359 
	C638.778870,285.397522 636.675903,282.538025 624.750305,281.693665 
	C623.784363,281.625244 622.826782,281.439789 621.925049,281.316864 
	C621.054382,273.096283 622.336060,271.530701 629.719177,271.530426 
	C659.536438,271.529358 689.353760,271.529968 719.171021,271.529968 
	C721.129944,271.529968 723.088806,271.529968 725.827393,271.529968 
	C723.412598,284.729187 721.128906,297.211884 718.812683,309.872192 
	C714.852051,309.872192 711.267212,309.872192 707.055054,309.872192 
	C707.414978,306.359467 707.739502,303.114777 708.081116,299.871887 
	C709.199158,289.258759 704.023254,283.328796 693.336121,283.202057 
	C684.508728,283.097382 675.676514,283.068451 666.853394,283.286682 
	C665.493042,283.320312 663.210327,284.652435 662.972900,285.738068 
	C659.068176,303.588837 655.423462,321.496429 651.611206,339.918640 
	C667.281616,339.918640 682.518677,339.918640 698.299316,339.918640 
	C697.649841,343.497894 697.504272,346.708832 696.356812,349.509216 
	C695.856628,350.729889 693.309937,351.748962 691.679077,351.769440 
	C677.701599,351.944672 663.721069,351.869995 649.209717,351.869995 
	C644.749939,372.523315 640.313782,393.067291 635.812500,413.912567 
	C649.680176,413.912567 663.159058,414.385834 676.583069,413.731903 
	C684.413513,413.350433 689.015503,407.286011 692.615845,400.821930 
	C693.499939,399.234619 694.110474,397.485687 694.757568,395.777252 
	C698.187073,386.723602 698.401428,386.598846 708.915833,388.463531 
	C708.664429,389.865753 708.412537,391.270599 708.064453,393.080017 
z"/>
<path fill="#E0D682" opacity="1.000000" stroke="none" 
	d="
M1161.861328,306.087433 
	C1162.052124,301.978729 1162.760010,298.270996 1162.291748,294.718323 
	C1161.324585,287.382935 1157.302612,283.603851 1149.998901,283.339996 
	C1140.180786,282.985260 1130.340576,283.110291 1120.514526,283.289215 
	C1119.353271,283.310333 1117.429321,284.796143 1117.194580,285.889679 
	C1113.358154,303.761108 1109.737183,321.678833 1105.982056,340.003723 
	C1121.548096,340.003723 1136.830566,340.003723 1152.665649,340.003723 
	C1152.023560,343.496246 1151.864502,346.696533 1150.721558,349.494995 
	C1150.224487,350.711761 1147.713501,351.747437 1146.103638,351.767609 
	C1132.117676,351.942963 1118.128662,351.868774 1103.552734,351.868774 
	C1099.104370,372.502380 1094.671509,393.063599 1090.173706,413.926270 
	C1103.892822,413.926270 1117.397095,414.532532 1130.789795,413.576538 
	C1135.107666,413.268311 1139.655640,409.404572 1143.124268,406.134308 
	C1145.878784,403.537354 1147.506592,399.512573 1149.006836,395.863586 
	C1152.741821,386.778900 1152.601929,386.717590 1163.477295,388.448669 
	C1161.445557,396.813141 1159.468628,405.144836 1157.384155,413.449463 
	C1156.377930,417.458282 1156.357056,423.032654 1153.732178,424.961853 
	C1150.865112,427.068756 1145.502930,425.939392 1141.228027,425.946228 
	C1111.070068,425.994293 1080.911987,425.971741 1050.754028,425.971741 
	C1049.102295,425.971741 1047.450439,425.971741 1045.094971,425.971741 
	C1045.821655,422.575104 1046.460938,419.587158 1047.071289,416.733948 
	C1047.599854,416.501160 1047.892334,416.280090 1048.204224,416.248260 
	C1064.376587,414.597198 1066.165161,413.146667 1069.554932,397.309387 
	C1076.864624,363.157227 1084.049438,328.978271 1091.262817,294.805542 
	C1093.045288,286.361328 1090.109253,282.484863 1081.559448,281.837585 
	C1079.765503,281.701782 1077.971924,281.563934 1076.233765,281.431274 
	C1075.580688,272.345734 1076.305420,271.531403 1084.705811,271.531281 
	C1114.363892,271.530823 1144.022095,271.531158 1173.680176,271.531158 
	C1175.625732,271.531158 1177.571289,271.531128 1180.189331,271.531128 
	C1177.886353,284.174164 1176.062256,296.137390 1173.380493,307.905243 
	C1172.375000,312.317566 1167.682983,309.435028 1164.729126,310.080017 
	C1161.784302,310.722992 1161.390503,308.898499 1161.861328,306.087433 
z"/>
<path fill="#E0D682" opacity="1.000000" stroke="none" 
	d="
M957.328003,331.311462 
	C959.975586,318.700653 962.879883,306.560455 964.974792,294.282166 
	C966.507385,285.300079 963.789001,282.576874 954.621643,282.060577 
	C952.979492,281.968079 951.327698,282.047424 948.987488,282.047424 
	C949.678589,278.740234 950.265747,275.930298 951.027344,272.285706 
	C973.141541,272.832306 995.171448,272.271057 1016.976318,274.223236 
	C1039.295898,276.221436 1052.022583,294.125702 1050.445312,316.664978 
	C1048.570312,343.458069 1033.809814,357.970978 1014.335388,363.234039 
	C1006.562866,365.334595 998.278625,365.656219 990.193542,366.438934 
	C985.902588,366.854340 981.513184,366.256989 977.223633,366.679657 
	C975.797607,366.820190 973.650879,368.512421 973.351501,369.837982 
	C970.641968,381.836517 968.203613,393.898163 965.826111,405.968964 
	C964.647644,411.952484 966.497559,414.616089 972.533569,415.960114 
	C974.633240,416.427582 976.808533,416.629211 978.961121,416.763702 
	C981.095398,416.897003 983.244568,416.792847 986.018311,416.792847 
	C985.293152,420.118011 984.680481,422.927124 984.051147,425.812988 
	C962.264099,425.812988 940.815613,425.812988 919.362122,425.812988 
	C919.606445,417.800568 919.775696,417.601654 927.179138,416.465027 
	C936.874207,414.976532 940.385925,411.739746 942.573181,401.508850 
	C947.542725,378.264252 952.359070,354.986908 957.328003,331.311462 
M989.844482,292.300659 
	C985.381653,313.348389 980.918823,334.396118 976.374329,355.829041 
	C982.020264,355.829041 986.846619,356.134430 991.622681,355.773712 
	C1008.166077,354.524231 1018.928467,345.776917 1023.171265,329.968048 
	C1024.410034,325.352264 1025.102905,320.498047 1025.331421,315.718933 
	C1026.340698,294.602936 1019.223145,282.499695 995.738403,283.163361 
	C994.582031,283.196045 993.423950,283.167572 991.858887,283.167572 
	C991.232483,286.003754 990.628296,288.739197 989.844482,292.300659 
z"/>
<path fill="#DFD582" opacity="1.000000" stroke="none" 
	d="
M770.099670,287.093811 
	C790.237244,271.555298 812.334473,266.367981 836.633972,273.092773 
	C841.359436,274.400513 846.183350,277.426910 849.608215,280.969330 
	C859.702454,291.410034 854.915588,307.035736 840.874634,310.706085 
	C838.237366,311.395477 835.425293,311.416077 832.595093,311.757233 
	C832.029907,307.035156 831.634949,302.925598 831.031799,298.846832 
	C829.102112,285.798462 820.414490,279.883881 807.531799,282.504944 
	C795.867371,284.878204 787.467773,291.981567 780.647400,301.101288 
	C766.672668,319.787415 760.473083,341.370605 758.266846,364.243011 
	C757.695007,370.171539 757.661682,376.240967 758.197693,382.171875 
	C760.449219,407.083618 777.042236,416.552979 799.839111,413.536194 
	C809.549255,412.251160 817.208984,407.174408 823.866089,400.318939 
	C825.476562,398.660431 827.017639,396.934540 829.097168,394.693909 
	C832.162476,398.896545 831.660400,403.063477 830.267944,407.056915 
	C827.122192,416.078827 820.164978,421.590973 811.581909,424.563354 
	C792.831238,431.056793 774.105225,430.650330 756.470886,421.036591 
	C739.964294,412.037598 733.185120,396.448151 732.431641,378.674408 
	C730.907043,342.710022 742.196411,311.557953 770.099670,287.093811 
z"/>
<path fill="#DED581" opacity="1.000000" stroke="none" 
	d="
M490.883850,139.679413 
	C491.277985,131.755661 491.277985,131.755661 478.927643,129.756317 
	C479.320435,127.563942 479.712158,125.377472 480.287750,122.164772 
	C498.879028,122.784996 517.340149,122.803146 535.687683,124.255859 
	C545.398376,125.024734 553.691528,130.142365 555.908752,140.767288 
	C558.464233,153.012970 555.951050,164.055695 545.341125,171.887955 
	C541.648315,174.614029 537.265869,176.405914 533.209839,178.618195 
	C533.276489,178.714371 533.405212,179.135544 533.652039,179.222748 
	C544.143005,182.929642 549.574768,190.438278 549.631104,201.454010 
	C549.696472,214.260376 545.933899,225.423355 534.349487,232.612457 
	C526.618103,237.410477 517.971191,239.264572 509.082855,239.430588 
	C491.938324,239.750793 474.785034,239.604004 457.635345,239.627838 
	C457.184540,239.628464 456.733368,239.364136 455.891541,239.101425 
	C456.336670,236.973572 456.771057,234.897018 457.191650,232.886322 
	C457.544250,232.644867 457.794006,232.336533 458.080536,232.297394 
	C471.072815,230.522430 471.763519,230.018005 474.530090,217.118683 
	C480.032440,191.463364 485.397644,165.778656 490.883850,139.679413 
M524.477539,186.888062 
	C516.959900,181.678223 508.466705,184.044632 500.085297,183.262802 
	C496.641296,199.244232 493.293030,214.781540 489.771454,231.123001 
	C497.442017,230.704727 504.609375,230.808807 511.618896,229.807632 
	C520.577698,228.528000 526.333435,222.726074 528.413086,214.101013 
	C530.626587,204.920868 532.948303,195.397141 524.477539,186.888062 
M527.997314,133.071182 
	C523.054260,132.603775 518.117126,132.019150 513.163086,131.771591 
	C512.215149,131.724213 510.502472,132.854233 510.321381,133.694962 
	C507.425385,147.141312 504.720978,160.628922 501.800476,174.953049 
	C508.304901,174.564606 514.288940,174.616898 520.140259,173.761429 
	C528.835693,172.490158 534.035522,166.915054 535.926880,158.505692 
	C536.756409,154.817734 537.004333,150.924911 536.960571,147.131531 
	C536.890686,141.078156 534.502869,136.149353 527.997314,133.071182 
z"/>
<path fill="#DFD581" opacity="1.000000" stroke="none" 
	d="
M959.441528,123.361801 
	C960.213257,123.488968 960.539062,123.559113 960.867920,123.610352 
	C974.756104,125.774269 982.226257,131.676605 984.089600,141.960587 
	C986.626648,155.963730 981.562134,167.466736 969.728516,174.219070 
	C966.918396,175.822556 963.877747,177.021835 960.617371,178.560822 
	C961.498535,179.131897 961.995544,179.606537 962.586365,179.814209 
	C972.918335,183.446060 977.273438,191.209213 977.545471,201.661713 
	C978.024841,220.079834 968.444336,232.763412 950.580566,237.436020 
	C948.013367,238.107498 945.362793,238.862686 942.746399,238.878998 
	C923.300781,239.000336 903.854004,238.944824 883.870056,238.944824 
	C884.259094,237.034531 884.706665,234.836807 885.153625,232.642212 
	C885.750732,232.456131 886.208618,232.229401 886.685547,232.177078 
	C898.303772,230.902664 899.707153,229.648285 902.199341,217.868759 
	C907.560364,192.528351 912.906921,167.184860 918.217224,141.833801 
	C920.163025,132.544983 918.991699,131.071411 909.429382,130.302673 
	C908.776184,130.250137 908.126404,130.155106 907.495605,130.082214 
	C906.685608,123.341690 907.176208,122.700226 913.573975,122.761612 
	C928.715332,122.906898 943.856140,123.113907 959.441528,123.361801 
M927.897705,184.343475 
	C924.523193,199.679001 921.148682,215.014511 917.685852,230.751526 
	C922.794128,230.751526 927.267212,230.796631 931.739075,230.743347 
	C947.087830,230.560471 955.227417,223.720551 957.661011,208.699005 
	C958.187927,205.447128 958.109009,202.063660 958.007629,198.750000 
	C957.752930,190.414856 953.059265,184.910065 944.748657,183.956680 
	C939.339050,183.336105 933.817505,183.690414 927.897705,184.343475 
M964.261536,156.565475 
	C964.470032,152.926117 965.107788,149.250168 964.801514,145.654663 
	C964.063293,136.989807 958.379944,132.213074 948.878235,131.712601 
	C938.845154,131.184143 938.774109,131.168976 936.431335,142.137527 
	C934.150818,152.814651 932.036499,163.527252 929.836609,174.286179 
	C935.299988,174.286179 940.311340,174.693085 945.233337,174.203110 
	C956.123352,173.118973 961.469238,168.130478 964.261536,156.565475 
z"/>
<path fill="#E0D682" opacity="1.000000" stroke="none" 
	d="
M874.860840,275.757629 
	C875.743652,274.495331 876.516663,272.951874 877.299988,272.946594 
	C897.079041,272.813385 916.859192,272.841766 936.952087,272.841766 
	C936.284973,276.137634 935.731018,278.874451 935.217407,281.411743 
	C934.581604,281.682251 934.286743,281.909149 933.982483,281.922577 
	C919.148010,282.578430 915.912842,285.140167 912.789246,299.741486 
	C905.349487,334.518127 898.040710,369.322845 890.718018,404.124420 
	C888.983948,412.365784 890.855774,415.038574 899.173157,416.379120 
	C901.607727,416.771515 904.086060,416.893097 906.790527,417.163422 
	C906.084290,420.150726 905.443726,422.859863 904.762451,425.741486 
	C884.456360,425.741486 864.359070,425.741486 843.603271,425.741486 
	C844.149048,422.807251 844.668457,420.014771 845.152893,417.410278 
	C845.835327,417.152832 846.132507,416.959991 846.443237,416.935059 
	C861.926208,415.692230 864.556519,413.460846 867.750183,398.448700 
	C874.943787,364.634216 882.091553,330.809998 889.252197,296.988525 
	C889.492981,295.851227 889.748352,294.708557 889.866516,293.555023 
	C890.674927,285.660492 888.520935,283.006531 880.525574,282.135712 
	C878.409973,281.905273 876.269409,281.903717 873.705750,281.775269 
	C874.096497,279.698029 874.426208,277.945618 874.860840,275.757629 
z"/>
<path fill="#DED481" opacity="1.000000" stroke="none" 
	d="
M648.878052,165.802246 
	C650.610779,157.406845 652.303467,149.433746 653.980896,141.457413 
	C655.680603,133.375092 654.065491,131.258652 645.815002,130.723419 
	C644.848511,130.660721 643.881165,130.612991 642.943909,130.559998 
	C642.671570,123.752029 642.805176,123.605576 649.122253,123.604332 
	C659.896179,123.602211 670.670166,123.603760 681.563049,123.603760 
	C681.679443,128.650650 680.292114,130.856506 675.163086,131.061478 
	C668.309692,131.335358 665.546509,134.608032 663.903809,142.303665 
	C659.250916,164.099945 654.927979,185.970703 649.966980,207.696091 
	C643.430786,236.319885 617.017273,249.624176 589.671448,238.467194 
	C577.107361,233.341095 571.355469,221.807129 574.359009,206.279297 
	C578.434326,185.211258 582.972290,164.232758 587.305969,143.214630 
	C587.574585,141.911987 587.852844,140.606628 588.022522,139.289154 
	C588.747375,133.662094 587.217590,131.651184 581.605286,130.888290 
	C579.847656,130.649353 578.070190,130.556229 575.927185,130.362503 
	C576.385376,128.027695 576.758423,126.126350 577.185913,123.947762 
	C592.718567,123.947762 608.085327,123.947762 623.508484,123.947762 
	C623.551025,128.408890 622.545776,130.882828 617.438843,131.004013 
	C610.811584,131.161285 607.454346,134.353012 606.051086,140.900665 
	C601.309692,163.022598 596.719177,185.177216 592.180725,207.341812 
	C591.651672,209.925644 591.636047,212.652161 591.676331,215.308075 
	C591.804871,223.789459 596.085754,228.926147 604.405884,230.816788 
	C621.195496,234.632019 634.112854,227.659210 638.801941,211.010422 
	C642.538147,197.745132 644.897095,184.091904 647.867188,170.610840 
	C648.189392,169.148422 648.510071,167.685715 648.878052,165.802246 
z"/>
<path fill="#DDD481" opacity="1.000000" stroke="none" 
	d="
M1078.369263,238.839478 
	C1078.614868,234.340622 1079.689819,231.682373 1085.007812,231.602020 
	C1091.613647,231.502167 1094.394897,228.116409 1095.966553,220.714828 
	C1100.043701,201.512970 1104.063965,182.299042 1108.100830,163.088669 
	C1109.537354,156.251755 1110.922974,149.403915 1112.392212,142.574097 
	C1114.385498,133.309875 1112.867676,131.166504 1103.592773,130.304611 
	C1102.940918,130.244064 1102.296387,130.105408 1101.027710,129.905029 
	C1101.460205,127.602196 1101.869385,125.423431 1102.310181,123.077179 
	C1128.336792,123.077179 1154.069580,123.077179 1180.186157,123.077179 
	C1178.411743,132.763702 1176.708496,142.062225 1174.959961,151.607269 
	C1172.024658,151.607269 1169.293335,151.607269 1166.065430,151.607269 
	C1166.348389,148.953842 1166.599243,146.528488 1166.867065,144.105026 
	C1167.718262,136.398911 1163.928345,131.863693 1156.268799,131.711975 
	C1149.606934,131.580002 1142.935059,131.533905 1136.281128,131.794739 
	C1134.930420,131.847687 1132.712280,133.235565 1132.463379,134.356461 
	C1129.548828,147.484650 1126.934448,160.679535 1124.109985,174.496246 
	C1135.974487,174.496246 1147.383423,174.496246 1158.766113,174.496246 
	C1158.949707,183.155838 1158.666504,183.474457 1151.262817,183.476135 
	C1142.765747,183.478073 1134.266113,183.370117 1125.774414,183.584503 
	C1124.415894,183.618790 1122.142334,184.869522 1121.897705,185.928833 
	C1118.503296,200.624207 1115.389160,215.384354 1112.126709,230.498764 
	C1122.620605,230.498764 1132.583618,230.972198 1142.477173,230.347809 
	C1150.282959,229.855164 1153.960815,223.711761 1156.579346,217.102661 
	C1159.393555,209.999527 1159.337280,209.977234 1167.565552,211.389542 
	C1165.384521,220.248230 1163.277832,229.089996 1160.929932,237.867218 
	C1160.712769,238.679108 1158.962158,239.596756 1157.922974,239.597427 
	C1131.611450,239.614761 1105.300049,239.516251 1078.988525,239.428528 
	C1078.838013,239.428024 1078.688110,239.293091 1078.369263,238.839478 
z"/>
<path fill="#DDD380" opacity="1.000000" stroke="none" 
	d="
M1072.047363,144.851196 
	C1072.508057,135.165573 1069.421387,131.770050 1060.421753,131.689194 
	C1054.091919,131.632324 1047.756958,131.554092 1041.434814,131.782150 
	C1040.215088,131.826157 1038.202148,133.059036 1037.979736,134.059998 
	C1035.128906,146.891632 1032.532349,159.779892 1029.901733,172.660019 
	C1029.812500,173.097031 1030.043579,173.599442 1030.217285,174.601501 
	C1041.586304,174.601501 1052.977051,174.601501 1064.391235,174.601501 
	C1063.756226,183.476318 1063.756226,183.477005 1055.548828,183.477982 
	C1047.386108,183.478958 1039.220215,183.364029 1031.063843,183.591248 
	C1029.707031,183.629028 1027.448853,184.938568 1027.199829,186.025299 
	C1023.929871,200.298996 1020.941589,214.637268 1017.911560,228.965424 
	C1017.816895,229.413025 1018.032837,229.926270 1018.143433,230.676727 
	C1027.641235,230.676727 1037.127441,231.006210 1046.579468,230.578934 
	C1055.086914,230.194336 1059.245239,224.143936 1062.016113,216.899384 
	C1064.723999,209.819427 1064.804321,209.769867 1072.943115,211.477036 
	C1070.814941,220.161743 1068.754639,228.854874 1066.465942,237.487442 
	C1066.224487,238.397842 1064.641968,239.576248 1063.677124,239.580383 
	C1037.214844,239.694138 1010.751953,239.671371 984.328308,239.671371 
	C983.652466,233.051147 983.995300,232.599274 989.961487,231.830322 
	C996.731812,230.957748 999.552368,228.596298 1001.054810,221.600555 
	C1006.891541,194.423965 1012.629944,167.226028 1018.305237,140.015244 
	C1019.579712,133.904373 1017.542419,131.329590 1011.351074,130.499496 
	C1009.893250,130.304031 1008.424988,130.186661 1006.991211,130.036484 
	C1006.826233,122.804688 1006.876221,122.746506 1013.553223,122.745850 
	C1035.542603,122.743690 1057.531860,122.745033 1079.521240,122.745033 
	C1081.313110,122.745033 1083.104980,122.745041 1085.597168,122.745041 
	C1083.880127,132.262527 1082.604858,141.288208 1080.318604,150.050156 
	C1079.943604,151.487869 1075.121826,151.765335 1071.538208,152.819290 
	C1071.735596,149.482697 1071.859741,147.384735 1072.047363,144.851196 
z"/>
<path fill="#DDD481" opacity="1.000000" stroke="none" 
	d="
M745.166992,199.078796 
	C749.078613,220.044373 738.630249,235.938721 718.240479,240.297562 
	C707.789001,242.531830 697.312317,242.393097 687.189270,238.725174 
	C679.251343,235.849014 673.419861,230.568893 671.591858,221.929581 
	C669.531738,212.193283 674.721863,205.844070 685.156372,205.389572 
	C685.781982,209.048843 686.128967,212.829575 687.102234,216.441544 
	C689.944885,226.990387 696.618591,232.456650 706.539673,232.737122 
	C716.461792,233.017639 723.993164,228.653091 727.155029,220.790222 
	C730.589905,212.248245 728.629150,202.177322 721.606567,196.100632 
	C716.974915,192.092850 711.636292,188.900711 706.604004,185.357803 
	C698.400208,179.582031 691.266785,173.017838 689.237183,162.526154 
	C685.391724,142.647583 696.564819,125.765541 716.709900,122.927299 
	C724.903015,121.772964 733.520508,123.137230 741.884277,123.966736 
	C744.662781,124.242294 747.471252,126.112709 749.883667,127.800484 
	C755.502747,131.731873 757.529907,137.767639 755.599731,143.516739 
	C753.748535,149.030334 749.295654,151.538849 741.104614,151.385773 
	C740.810303,149.400803 740.533936,147.317596 740.188599,145.245895 
	C738.688171,136.244125 734.125305,131.302902 726.857117,130.775253 
	C717.070862,130.064804 709.186096,135.037735 706.610168,143.545029 
	C703.664673,153.272827 706.249939,161.783401 714.408081,167.966705 
	C718.914124,171.381943 723.802490,174.287674 728.423584,177.557175 
	C736.037659,182.944260 742.597168,189.210312 745.166992,199.078796 
z"/>
<path fill="#DDD381" opacity="1.000000" stroke="none" 
	d="
M803.028687,225.844635 
	C802.809998,229.820908 804.856812,231.458542 808.024658,231.952438 
	C810.793457,232.384125 813.595215,232.604187 816.422241,232.922195 
	C817.082092,238.145203 815.172974,239.932190 809.851990,239.798935 
	C795.386780,239.436691 780.906494,239.674561 765.713196,239.674561 
	C766.249329,237.103653 766.672241,235.075516 767.053467,233.247314 
	C767.689880,232.967987 767.979614,232.741714 768.282837,232.721939 
	C782.242310,231.811737 783.508789,230.703384 786.198425,217.047302 
	C786.423523,215.904465 786.629639,214.744217 787.004517,213.646652 
	C791.669556,199.988586 790.327820,186.791107 785.238647,173.388702 
	C781.113586,162.525345 778.315308,151.154236 775.021362,139.980942 
	C773.436584,134.605011 771.782898,129.466934 764.577942,130.702576 
	C763.996399,125.105629 766.006836,123.311241 771.296936,123.478058 
	C783.598877,123.865997 795.921387,123.601662 808.218750,123.601662 
	C808.484009,130.266846 808.183289,130.622742 802.546204,130.676102 
	C794.351990,130.753677 792.627380,132.678268 794.600098,140.693420 
	C798.197327,155.308899 802.105225,169.847900 806.000916,184.871552 
	C815.714172,170.461151 825.377869,156.183212 834.941772,141.838821 
	C835.835388,140.498581 836.200928,138.765991 836.634949,137.167603 
	C837.721985,133.164902 836.007568,131.099213 831.980774,130.815079 
	C829.697876,130.653992 827.409912,130.566772 825.091675,130.444565 
	C824.425232,125.310326 826.032898,123.300873 831.271240,123.488274 
	C841.884399,123.867966 852.520691,123.601624 863.245483,123.601624 
	C863.544800,128.206711 862.659851,130.858978 857.594360,131.184128 
	C855.521118,131.317200 853.076538,133.462326 851.693726,135.347153 
	C837.700867,154.419205 823.890808,173.625381 810.044556,192.804810 
	C809.662476,193.334106 809.304688,193.955948 809.178101,194.583527 
	C807.105713,204.856735 805.072388,215.137802 803.028687,225.844635 
z"/>
<path fill="#E3D984" opacity="1.000000" stroke="none" 
	d="
M292.670532,431.778076 
	C295.246521,427.869507 298.246368,428.703888 301.371887,430.111969 
	C308.095947,433.141296 314.824799,436.160278 321.567596,439.147491 
	C325.565979,440.918884 328.952148,440.080505 332.389954,437.301727 
	C334.555725,435.551117 337.484619,434.123962 340.183014,433.900177 
	C341.654480,433.778137 344.732422,436.542145 344.660522,437.873505 
	C344.528229,440.322205 343.237518,443.692810 341.315948,444.886932 
	C333.685577,449.628632 325.653290,453.731506 317.700378,457.939636 
	C316.059570,458.807861 314.129456,459.550690 312.317200,459.587402 
	C308.292480,459.668854 305.654907,455.797424 307.359039,451.517029 
	C309.055237,447.256561 306.739929,445.871460 303.815125,444.366425 
	C301.110474,442.974609 298.365875,441.655243 295.706696,440.181549 
	C292.487366,438.397522 291.118042,435.761841 292.670532,431.778076 
z"/>
<path fill="#E3D984" opacity="1.000000" stroke="none" 
	d="
M353.188721,442.958466 
	C363.812744,440.030853 373.977539,436.937073 384.308441,434.567596 
	C386.055115,434.166992 389.318420,436.393250 390.472992,438.271393 
	C392.531616,441.620209 390.224548,444.863739 387.163635,445.788910 
	C377.001801,448.860382 366.690063,451.482941 356.327209,453.789764 
	C354.842926,454.120178 352.332886,452.118866 351.046478,450.573303 
	C348.607117,447.642456 350.414825,445.150635 353.188721,442.958466 
z"/>
<path fill="#E3D984" opacity="1.000000" stroke="none" 
	d="
M334.248657,368.676514 
	C326.773834,365.142548 319.310791,365.537872 311.789917,366.604797 
	C310.662598,366.764709 309.530212,366.908997 308.395142,366.990387 
	C305.061829,367.229370 302.647156,366.059631 302.028503,362.502411 
	C301.441223,359.125610 303.424500,356.979279 306.208344,356.093567 
	C318.048187,352.326630 329.618652,353.355927 340.664337,359.018463 
	C343.285706,360.362335 344.042389,363.016235 342.948364,365.806763 
	C341.358124,369.863159 338.038788,369.709076 334.248657,368.676514 
z"/>
<path fill="#E3D984" opacity="1.000000" stroke="none" 
	d="
M354.336761,405.272339 
	C353.931335,399.328003 353.777954,393.615967 352.429993,388.201324 
	C351.408752,384.099213 352.641296,381.469482 355.920807,380.208405 
	C359.394745,378.872620 362.371552,380.475647 363.650879,384.222229 
	C367.365173,395.100128 367.374542,405.999573 363.608673,416.867798 
	C362.301086,420.641388 359.252441,422.133728 355.831390,420.754120 
	C352.599182,419.450653 350.909241,416.697662 352.572052,412.723450 
	C353.488281,410.533508 353.600525,408.007202 354.336761,405.272339 
z"/>
<path fill="#E3D984" opacity="1.000000" stroke="none" 
	d="
M285.976135,403.413635 
	C285.995300,405.852539 285.794586,407.868896 286.041626,409.828766 
	C286.505890,413.512146 283.807556,415.542145 281.370209,415.592255 
	C279.278381,415.635254 275.511841,413.246674 275.294434,411.569305 
	C274.417542,404.804260 274.051636,397.847168 274.651764,391.063141 
	C275.018311,386.919464 277.425018,382.936676 279.030701,378.927856 
	C280.582367,375.053894 283.457123,373.920166 287.179779,375.713226 
	C290.654724,377.387054 290.735931,380.360687 289.758850,383.658813 
	C288.126526,389.168488 286.539978,394.694000 285.101624,400.256134 
	C284.900635,401.033447 285.649292,402.056366 285.976135,403.413635 
z"/>
<path fill="#E3D984" opacity="1.000000" stroke="none" 
	d="
M250.309235,443.281799 
	C251.634201,443.001526 252.730392,442.679657 253.672348,442.932465 
	C263.439087,445.553894 273.138702,448.438507 282.951385,450.868896 
	C286.679169,451.792206 288.543823,453.730835 287.898376,457.293701 
	C287.260254,460.816498 284.655975,462.307983 281.005066,462.014374 
	C270.051758,461.133575 259.787140,457.836731 250.052078,452.936920 
	C245.885269,450.839722 246.038376,447.550476 250.309235,443.281799 
z"/>
<path fill="#E3D984" opacity="1.000000" stroke="none" 
	d="
M230.322327,423.821594 
	C233.497009,427.470947 236.234985,431.518738 232.057129,435.129059 
	C227.870132,438.747345 224.393250,435.208649 221.500366,431.983459 
	C219.087479,429.293427 216.387894,426.777283 214.439117,423.778687 
	C212.648148,421.022949 211.377243,417.457153 214.730331,414.901794 
	C218.051636,412.370605 221.320633,413.352386 223.970642,416.468323 
	C225.989914,418.842621 228.022934,421.205292 230.322327,423.821594 
z"/>
<path fill="#E3D984" opacity="1.000000" stroke="none" 
	d="
M418.032806,423.996460 
	C421.332611,422.970001 424.165924,421.689026 427.135681,421.118988 
	C430.456024,420.481598 433.204285,421.692078 434.618256,425.122223 
	C436.097504,428.710602 433.643890,430.806610 431.222809,431.801270 
	C426.042450,433.929596 420.633423,435.751617 415.145325,436.735809 
	C413.388947,437.050812 409.720337,434.607819 409.387024,432.936127 
	C408.977997,430.884491 410.748260,427.979706 412.344391,426.093689 
	C413.414185,424.829559 415.819000,424.695343 418.032806,423.996460 
z"/>
<path fill="#000000" opacity="1.000000" stroke="none" 
	d="
M261.033020,145.024200 
	C255.065048,156.688019 247.520218,166.095764 234.206543,169.053909 
	C229.026749,170.204788 223.965622,171.969269 218.747726,172.835785 
	C216.124115,173.271454 213.237122,172.496231 210.526382,171.972626 
	C188.558365,167.729355 172.721497,150.066101 171.812561,127.598412 
	C170.914200,105.391861 186.473679,86.081528 206.931641,80.517853 
	C223.871567,75.910927 244.303253,82.842552 255.216400,97.348824 
	C265.920013,111.576561 267.482574,126.572952 262.000580,142.906464 
	C261.795471,143.517624 261.380280,144.058258 261.033020,145.024200 
z"/>
<path fill="#000000" opacity="1.000000" stroke="none" 
	d="
M405.973206,195.220337 
	C411.748047,220.916260 405.463837,243.457077 391.146515,264.523682 
	C384.004822,275.032043 375.624115,283.792450 363.759796,288.531494 
	C359.185669,290.358551 354.117798,291.051666 349.207367,291.841980 
	C348.306702,291.986938 346.270172,290.219360 346.127808,289.151917 
	C344.273743,275.250244 342.736450,261.306824 340.972168,247.392578 
	C339.889008,238.850281 338.412262,230.355621 337.466095,221.800430 
	C337.302002,220.316605 338.476044,218.003311 339.752777,217.144119 
	C358.141632,204.768982 376.713867,192.666107 395.086792,180.267715 
	C398.825623,177.744690 400.500122,179.213577 401.741425,182.456238 
	C403.293732,186.511322 404.560638,190.675644 405.973206,195.220337 
z"/>
<path fill="#000000" opacity="1.000000" stroke="none" 
	d="
M98.963425,224.845856 
	C97.956482,231.705490 96.925766,238.120010 96.012535,244.551208 
	C94.685585,253.895798 93.440887,263.252075 92.166016,272.604004 
	C91.441025,277.922302 90.510750,283.225037 90.089836,288.567596 
	C89.851517,291.592529 88.386398,292.168427 85.885735,292.005554 
	C76.485718,291.393372 68.317009,287.495026 61.279900,281.648102 
	C44.471680,267.682617 33.820705,249.842361 30.042608,228.260635 
	C27.286619,212.517502 28.518871,197.039154 34.994545,182.185379 
	C36.491302,178.752136 38.680431,178.332031 41.555134,180.225494 
	C49.525024,185.474930 57.475380,190.754807 65.390244,196.086792 
	C75.059227,202.600479 84.548447,209.394409 94.399841,215.616821 
	C97.986572,217.882294 99.585732,220.360977 98.963425,224.845856 
z"/>
<path fill="#000000" opacity="1.000000" stroke="none" 
	d="
M373.578064,151.223679 
	C378.766052,155.258957 383.777466,158.925308 388.420441,163.010361 
	C392.262451,166.390717 391.936340,168.903656 387.747498,171.658966 
	C369.498566,183.662781 351.262848,195.688385 332.880585,207.485199 
	C331.103943,208.625366 328.046692,209.113495 326.095734,208.434219 
	C302.206757,200.116760 278.413391,191.524704 254.595703,183.002579 
	C253.989471,182.785675 253.278503,182.690536 252.804398,182.306503 
	C251.167831,180.980713 249.614670,179.551987 248.029739,178.162476 
	C249.719315,177.117432 251.286880,175.728195 253.116943,175.079590 
	C276.358368,166.842560 299.552002,158.454071 322.953369,150.693924 
	C331.165314,147.970764 339.922089,145.368759 348.409760,145.432098 
	C356.700684,145.493988 364.965637,149.026825 373.578064,151.223679 
z"/>
<path fill="#000000" opacity="1.000000" stroke="none" 
	d="
M49.295914,171.711639 
	C43.438702,167.506195 43.269478,166.914047 48.572300,161.984528 
	C58.577812,152.683380 69.927666,146.821411 84.073448,145.759171 
	C96.342079,144.837906 107.327583,148.424255 118.398643,152.211182 
	C138.977402,159.250290 159.421570,166.683029 179.916534,173.966614 
	C181.433777,174.505829 182.976608,175.038422 184.384109,175.801712 
	C185.670868,176.499481 186.790161,177.506058 187.983261,178.376541 
	C186.824646,179.583069 185.884872,181.399399 184.474884,181.905426 
	C159.916229,190.718704 135.331238,199.462784 110.644890,207.908920 
	C108.328758,208.701370 104.740730,208.253433 102.679962,206.926575 
	C84.863235,195.454910 67.261368,183.649551 49.295914,171.711639 
z"/>
<path fill="#000000" opacity="1.000000" stroke="none" 
	d="
M155.452423,284.998505 
	C151.232071,283.247986 149.661621,278.121552 151.988632,274.578369 
	C156.076736,268.353729 160.185242,262.135590 164.521149,256.083801 
	C166.452560,253.388062 168.926376,251.845062 172.831879,251.874207 
	C203.302567,252.101639 233.775970,252.059067 264.247772,251.924255 
	C268.000824,251.907669 270.183502,253.132095 272.176971,256.327820 
	C275.950439,262.377106 280.680542,267.850281 284.203369,274.024902 
	C285.575226,276.429382 285.295380,280.202332 284.648102,283.101959 
	C284.420990,284.119415 280.844696,284.916840 278.795471,284.922058 
	C237.832886,285.026337 196.869965,284.999847 155.452423,284.998505 
z"/>
<path fill="#000000" opacity="1.000000" stroke="none" 
	d="
M128.145416,214.024506 
	C147.381134,207.319427 166.194519,200.582199 185.078735,194.049713 
	C186.976517,193.393234 189.303223,193.976639 191.430862,193.984634 
	C190.723541,195.746368 190.302765,197.701569 189.264145,199.239594 
	C179.921509,213.074661 170.696381,226.998138 160.986282,240.573441 
	C151.631241,253.652359 144.202103,268.177917 132.209381,279.307068 
	C125.122055,285.884064 116.574249,289.638977 107.370811,291.910278 
	C102.984207,292.992767 101.398224,291.271179 102.025093,286.831482 
	C104.300987,270.712494 106.673546,254.607193 108.972404,238.491409 
	C109.707390,233.338882 110.100601,228.123764 111.137398,223.036591 
	C111.447189,221.516510 113.159622,219.788635 114.662193,219.099335 
	C118.902229,217.154160 123.366928,215.698669 128.145416,214.024506 
z"/>
<path fill="#000000" opacity="1.000000" stroke="none" 
	d="
M332.278381,274.599915 
	C332.999725,279.380371 333.560059,283.755188 333.980469,288.143433 
	C334.314789,291.633087 332.505249,292.459198 329.364716,291.741730 
	C315.238739,288.514679 303.926422,280.995148 295.669586,269.160126 
	C279.163605,245.501190 262.829834,221.721924 246.494629,197.944473 
	C245.788254,196.916275 245.776581,195.410797 245.441315,194.127640 
	C246.935577,193.898682 248.634506,193.085800 249.893890,193.527145 
	C274.230560,202.055832 298.504608,210.763046 322.820496,219.351547 
	C328.094208,221.214264 326.213348,226.101242 326.780701,229.427704 
	C328.971893,242.274933 330.337616,255.264252 331.935852,268.209900 
	C332.179260,270.181549 332.026520,272.202118 332.278381,274.599915 
z"/>
<path fill="#000000" opacity="1.000000" stroke="none" 
	d="
M269.771362,309.726532 
	C258.984741,320.306824 246.834686,328.168732 232.238937,330.740875 
	C210.650848,334.545319 190.725388,330.223938 173.964615,315.331573 
	C169.261414,311.152679 165.207108,306.217255 161.055176,301.454498 
	C158.762894,298.824982 160.135223,297.369629 163.165909,297.016266 
	C163.987381,296.920502 164.829346,297.000061 165.661911,297.000061 
	C200.962326,296.999969 236.262787,296.983704 271.563080,297.050201 
	C273.251892,297.053375 274.939301,297.788055 276.627380,298.182068 
	C276.057495,299.902252 275.777527,301.802063 274.849274,303.300201 
	C273.482330,305.506378 271.653198,307.426178 269.771362,309.726532 
z"/>
<path fill="#000000" opacity="1.000000" stroke="none" 
	d="
M186.749573,224.645828 
	C187.373001,223.652985 187.769348,222.953751 188.214172,222.286850 
	C191.538010,217.303619 193.826294,210.187180 198.478653,207.914597 
	C203.745300,205.341934 211.134842,207.077988 217.602051,207.011642 
	C223.098694,206.955261 228.616577,206.728317 234.083633,207.134415 
	C236.254227,207.295654 239.094025,208.391846 240.290192,210.036316 
	C245.999435,217.885162 251.302765,226.033401 256.603088,234.171143 
	C257.396271,235.388947 257.960754,237.282028 257.579895,238.545975 
	C257.341522,239.337082 255.137390,239.935822 253.813004,239.940353 
	C229.991943,240.022079 206.170486,240.020081 182.349380,239.946686 
	C181.001083,239.942535 179.655151,239.169479 178.308121,238.754288 
	C178.723694,237.468231 178.890671,236.020874 179.601074,234.926132 
	C181.804733,231.530228 184.214920,228.268326 186.749573,224.645828 
z"/>
<path fill="#000000" opacity="1.000000" stroke="none" 
	d="
M220.228699,362.257935 
	C218.641418,362.053619 216.598938,361.938934 216.138550,361.026245 
	C213.980331,356.747711 212.217728,352.265900 210.394394,347.823608 
	C209.350388,345.280060 210.514191,344.056091 213.066574,344.016663 
	C216.704224,343.960449 220.344421,343.948517 223.981491,344.020844 
	C226.547928,344.071869 227.652512,345.341248 226.587021,347.867706 
	C224.596466,352.587677 222.534546,357.277527 220.228699,362.257935 
z"/>
<path fill="#000000" opacity="1.000000" stroke="none" 
	d="
M212.483322,194.998840 
	C209.103699,194.755753 208.016235,193.288483 209.778259,190.780014 
	C211.701431,188.042099 212.402573,184.290680 217.060745,183.860901 
	C222.075241,183.398224 224.164627,186.386368 226.234131,189.801834 
	C228.081177,192.850189 227.007111,194.839569 223.424469,194.971069 
	C219.930252,195.099350 216.427658,194.999512 212.483322,194.998840 
z"/>
<path fill="#030201" opacity="1.000000" stroke="none" 
	d="
M563.085693,298.205322 
	C562.947083,307.193054 563.917786,315.995789 562.283264,324.284790 
	C559.614380,337.818909 548.672852,346.328918 534.034058,347.744049 
	C527.950562,348.332123 521.762695,347.841675 514.929688,347.841675 
	C516.939209,338.508240 518.906494,329.496613 520.815491,320.472626 
	C523.188660,309.255005 525.603516,298.044708 527.796875,286.791595 
	C528.353516,283.935638 529.484619,282.881378 532.416077,283.113800 
	C537.216980,283.494385 542.088440,283.181488 546.853088,283.777527 
	C555.219299,284.824097 560.974854,289.264893 563.085693,298.205322 
z"/>
<path fill="#030302" opacity="1.000000" stroke="none" 
	d="
M989.934326,291.887634 
	C990.628296,288.739197 991.232483,286.003754 991.858887,283.167572 
	C993.423950,283.167572 994.582031,283.196045 995.738403,283.163361 
	C1019.223145,282.499695 1026.340698,294.602936 1025.331421,315.718933 
	C1025.102905,320.498047 1024.410034,325.352264 1023.171265,329.968048 
	C1018.928467,345.776917 1008.166077,354.524231 991.622681,355.773712 
	C986.846619,356.134430 982.020264,355.829041 976.374329,355.829041 
	C980.918823,334.396118 985.381653,313.348389 989.934326,291.887634 
z"/>
<path fill="#040402" opacity="1.000000" stroke="none" 
	d="
M524.782837,187.105682 
	C532.948303,195.397141 530.626587,204.920868 528.413086,214.101013 
	C526.333435,222.726074 520.577698,228.528000 511.618896,229.807632 
	C504.609375,230.808807 497.442017,230.704727 489.771454,231.123001 
	C493.293030,214.781540 496.641296,199.244232 500.085297,183.262802 
	C508.466705,184.044632 516.959900,181.678223 524.782837,187.105682 
z"/>
<path fill="#040402" opacity="1.000000" stroke="none" 
	d="
M528.364014,133.225540 
	C534.502869,136.149353 536.890686,141.078156 536.960571,147.131531 
	C537.004333,150.924911 536.756409,154.817734 535.926880,158.505692 
	C534.035522,166.915054 528.835693,172.490158 520.140259,173.761429 
	C514.288940,174.616898 508.304901,174.564606 501.800476,174.953049 
	C504.720978,160.628922 507.425385,147.141312 510.321381,133.694962 
	C510.502472,132.854233 512.215149,131.724213 513.163086,131.771591 
	C518.117126,132.019150 523.054260,132.603775 528.364014,133.225540 
z"/>
<path fill="#040402" opacity="1.000000" stroke="none" 
	d="
M928.121948,183.975723 
	C933.817505,183.690414 939.339050,183.336105 944.748657,183.956680 
	C953.059265,184.910065 957.752930,190.414856 958.007629,198.750000 
	C958.109009,202.063660 958.187927,205.447128 957.661011,208.699005 
	C955.227417,223.720551 947.087830,230.560471 931.739075,230.743347 
	C927.267212,230.796631 922.794128,230.751526 917.685852,230.751526 
	C921.148682,215.014511 924.523193,199.679001 928.121948,183.975723 
z"/>
<path fill="#040402" opacity="1.000000" stroke="none" 
	d="
M964.181824,156.979431 
	C961.469238,168.130478 956.123352,173.118973 945.233337,174.203110 
	C940.311340,174.693085 935.299988,174.286179 929.836609,174.286179 
	C932.036499,163.527252 934.150818,152.814651 936.431335,142.137527 
	C938.774109,131.168976 938.845154,131.184143 948.878235,131.712601 
	C958.379944,132.213074 964.063293,136.989807 964.801514,145.654663 
	C965.107788,149.250168 964.470032,152.926117 964.181824,156.979431 
z"/>
</svg>